<svg xmlns="http://www.w3.org/2000/svg" xmlns:xlink="http://www.w3.org/1999/xlink" width="47" height="42" viewBox="0 0 47 42">
    <defs>
        <path id="a" d="M37.442 2.631c.148.813.225 1.651.225 2.507v13.826c0 7.669-6.217 13.886-13.886 13.886-7.67 0-13.886-6.217-13.886-13.886V5.138c0-.856.077-1.694.225-2.507h27.322zM23.5 20.341l4.586 2.459-.875-5.21 3.71-3.69-5.128-.76L23.5 8.4l-2.293 4.74-5.128.76 3.71 3.69-.875 5.21 4.586-2.46z"/>
    </defs>
    <g fill="none" fill-rule="evenodd">
        <rect width="32.158" height="6" x="7.421" y="36" fill="#757575" rx="3"/>
        <path fill="#757575" d="M19.789 27.6h8.658v9.6h-8.658z"/>
        <path stroke="#757575" stroke-width="2.591" d="M15.998 9.695H1.318a7.483 7.483 0 0 0-.023.585v7.462a7.362 7.362 0 0 0 14.725 0V10.28c0-.196-.007-.391-.022-.585zM31.002 9.695h14.68c.015.194.023.389.023.585v7.462a7.362 7.362 0 1 1-14.725 0V10.28c0-.196.007-.391.022-.585z"/>
        <rect width="37.105" height="6" x="4.947" fill="#757575" rx="3"/>
        <use fill="#757575" xlink:href="#a"/>
    </g>
</svg>
