<svg xmlns="http://www.w3.org/2000/svg" width="47" height="38" viewBox="0 0 47 38">
    <g fill="#757575" fill-rule="evenodd">
        <path d="M0 32.314h31.333v5.571H0zM42.524 37.886H34.69V11.143h4.464a3.37 3.37 0 0 1 3.37 3.37v17.801H47v5.572h-4.476z"/>
        <path d="M7.846 0h20.117a3.37 3.37 0 0 1 3.37 3.37v34.516H4.476V3.37A3.37 3.37 0 0 1 7.846 0zm1.106 5.571v5.572h6.715V5.57H8.952zm0 8.915v5.571h6.715v-5.571H8.952zm0 8.914v5.571h6.715V23.4H8.952zm11.19-17.829v5.572h6.715V5.57h-6.714zm0 8.915v5.571h6.715v-5.571h-6.714zm0 8.914v5.571h6.715V23.4h-6.714z"/>
    </g>
</svg>
