<svg xmlns="http://www.w3.org/2000/svg" xmlns:xlink="http://www.w3.org/1999/xlink" width="633" height="208" viewBox="0 0 633 208">
    <defs>
        <path id="a" d="M0 .837h156.173v160.775H0z"/>
        <path id="c" d="M0 208.163h632.474V1H0z"/>
    </defs>
    <g fill="none" fill-rule="evenodd" transform="translate(0 -1)">
        <g transform="translate(0 .163)">
            <mask id="b" fill="#fff">
                <use xlink:href="#a"/>
            </mask>
            <path fill="#3284FF" d="M81.45 161.612C37.184 161.612 0 125.488 0 81.222 0 36.957 37.184.836 81.45.836c24.436 0 42.142 9.561 55.246 22.31l-15.58 15.582c-9.566-8.854-22.313-15.583-39.666-15.583-32.577-.353-57.718 25.5-57.718 58.077 0 32.228 25.14 58.432 57.718 58.432 20.895 0 32.936-8.497 40.724-15.936 6.378-6.373 10.27-15.227 12.042-27.62H81.805V74.14h73.306c.705 3.896 1.062 8.5 1.062 13.812 0 16.645-4.602 36.83-19.122 51.348-13.811 14.521-31.87 22.312-55.601 22.312" mask="url(#b)"/>
        </g>
        <mask id="d" fill="#fff">
            <use xlink:href="#c"/>
        </mask>
        <path fill="#26B14C" d="M503.572 158.584h21.957V6.665h-21.957z" mask="url(#d)"/>
        <path fill="#FF3424" d="M216.018 141.589c-15.936 0-29.39-13.105-29.39-31.518 0-18.768 13.81-31.517 29.39-31.517 15.936 0 29.396 12.749 29.396 31.517 0 18.413-13.46 31.164-29.396 31.518m0-83.221c-28.682 0-52.054 21.602-52.054 51.703 0 29.747 23.372 51.705 52.054 51.705 28.687 0 52.062-21.958 52.062-51.705 0-30.101-23.375-52.057-52.062-51.703" mask="url(#d)"/>
        <path fill="#FB0" d="M328.633 141.589c-15.935 0-29.395-13.105-29.395-31.518 0-18.768 13.812-31.517 29.395-31.517 15.937 0 29.393 12.749 29.393 31.517 0 18.413-13.456 31.164-29.393 31.518m.353-83.221c-28.682 0-52.054 21.602-52.054 51.703 0 29.747 23.372 51.705 52.054 51.705 28.686 0 52.057-21.958 52.057-51.705 0-30.101-23.37-52.057-52.057-51.703" mask="url(#d)"/>
        <path fill="#3284FF" d="M441.246 141.235c-15.581 0-28.683-13.104-28.683-31.165 0-18.06 13.102-31.517 28.683-31.517 15.582 0 27.622 13.102 27.622 31.517 0 18.061-12.04 31.165-27.622 31.165zm26.208-71.534h-.711c-4.958-6.02-14.872-11.688-27.268-11.688-25.851 0-49.577 22.666-49.577 52.057 0 29.038 23.726 51.705 49.577 51.705 12.396 0 22.31-5.314 27.268-11.687h.71v7.434c0 19.834-10.625 30.46-27.626 30.46-14.162 0-22.66-9.919-26.203-18.417l-19.832 8.145c5.668 13.455 20.893 30.453 46.035 30.453 26.56 0 49.226-15.58 49.226-53.824V61.202h-21.6v8.5z" mask="url(#d)"/>
        <path fill="#FF3424" d="M586.792 78.2c8.852 0 16.644 4.602 19.123 10.977l-46.387 19.124C558.817 88.47 574.75 78.2 586.792 78.2m1.416 63.39c-11.687 0-19.828-5.313-25.14-15.58l69.407-28.687-2.48-6.019c-4.25-11.688-17.35-32.935-44.266-32.935-26.56 0-48.868 20.893-48.868 51.703 0 29.037 21.957 51.704 51.347 51.704 23.73 0 37.538-14.519 43.206-23.02L613.71 127.07c-6.024 8.497-13.817 14.52-25.502 14.52" mask="url(#d)"/>
    </g>
</svg>
