<svg xmlns="http://www.w3.org/2000/svg" width="47" height="47" viewBox="0 0 47 47">
    <path fill="#757575" fill-rule="evenodd" d="M39.337 44.434c-2.741-3.479-7.711-9.934-10.962-14.173l-.574-1.076-.128-.126-1.337-2.468c-4.079 3.67-7.585 6.643-10.389 8.796l-.445.442.51 1.393 1.593 4.365a.49.49 0 0 1-.128.505l-2.295 2.406-.19.189c-.128.127-.32.19-.384 0l-4.079-5.694c-1.337.57-2.23.695-2.866.19-.638-.633-.574-1.583.126-2.91l-5.67-4.114c-.129-.127-.129-.252 0-.38l.19-.189 2.421-2.278a.5.5 0 0 1 .511-.127l4.396 1.583 1.403.506.446-.444c2.23-2.72 5.29-6.137 8.986-10.187l-2.549-1.391-.19-.19-1.022-.633A5533.523 5533.523 0 0 0 2.563 7.419C1.543 6.66.842 6.09.461 5.71c-1.147-.885.064-2.213 1.274-1.898.191.065 3.697 1.14 8.158 2.405l1.657-1.645a1.624 1.624 0 0 1 2.294 0 1.596 1.596 0 0 1 0 2.278l-.382.38c2.613.822 5.353 1.644 7.839 2.34l1.912-1.898a1.623 1.623 0 0 1 2.294 0 1.595 1.595 0 0 1 0 2.279l-.638.633c1.53.505 2.868.822 3.76 1.074C36.024 4.192 42.333-.932 45.456.142c.19.065.255.127.447.191.062.064.19.19.318.19l.255.254c.064.063.19.189.19.315.129.127.129.254.191.443 1.084 3.1-4.079 9.365-11.726 16.577.256.886.637 2.151 1.084 3.608l.638-.633a1.622 1.622 0 0 1 2.294 0 1.596 1.596 0 0 1 0 2.277l-1.913 1.898c.701 2.468 1.53 5.188 2.295 7.847l.51-.507a1.623 1.623 0 0 1 2.294 0 1.596 1.596 0 0 1 0 2.278l-1.912 1.898c1.339 4.492 2.357 8.036 2.359 8.162.637 1.52-.766 2.784-1.722 1.582-.318-.442-.892-1.139-1.72-2.088z"/>
</svg>
